# xmcd CD database file
#
# Track frame offsets:
#	182
#	12977
#	24220
#	33955
#	48475
#	60005
#	71187
#	80260
#	92897
#	102792
#	116507
#	128042
#	139417
#	154577
#	165000
#	175765
#	186487
#	200725
#	213130
#	224622
#	237540
#	249425
#	260572
#	272575
#	285680
#	295450
#	304790
#	315242
#	326777
#	338112
#
# Disc length: 4661 seconds
#
# Revision: 7
# Processed by: cddbd v1.5.2PL0 Copyright (c) Steve Scherf et al.
# Submitted via: CDex 1.70beta2
#
DISCID=b112331e
DTITLE=Corren,Carmela - Eine Rose aus Santa Monica
DYEAR=1996
DGENRE=Folk
TTITLE0=Eine Rose aus Santa Monica
TTITLE1=Sei nicht traurig, geliebte Mama
TTITLE2=Hava Naghila
TTITLE3=Immer geht das Leben weiter
TTITLE4=Wann kommt der Tag
TTITLE5=Surabaya
TTITLE6=Irgendwie geht es immer weiter
TTITLE7=Die Nacht ist so schön
TTITLE8=Rosen haben Dornen
TTITLE9=Wer in Deine Augen sieht
TTITLE10=Vielleicht geschieht ein Wunder (deutsch/englisch)
TTITLE11=Mein Shtetele Belz
TTITLE12=Der feine Gentleman
TTITLE13=Blauer Wind von Mexico
TTITLE14=Dreh' Dich nicht um
TTITLE15=Einmal reicht uns das Glück seine Hände
TTITLE16=Drei weiße Segel
TTITLE17=Mandolino, sing
TTITLE18=Das Lied, das wir gesungen
TTITLE19=Mama Jamaica
TTITLE20=Es kommt alles einmal wieder
TTITLE21=Ich brauch nicht viel zum Glück
TTITLE22=Einmal da kommst Du wieder
TTITLE23=Adios, Adios
TTITLE24=Komm schau mich an
TTITLE25=In Deinen Armen ist die Welt so schön
TTITLE26=Solang man träumen kann
TTITLE27=Vielleicht geschieht ein Wunder (deutsch)
TTITLE28=Heut' oder morgen
TTITLE29=Abschiednehmen tut so weh
EXTD=YEAR: 1996
EXTT0=
EXTT1=
EXTT2=
EXTT3=
EXTT4=
EXTT5=
EXTT6=
EXTT7=
EXTT8=
EXTT9=
EXTT10=
EXTT11=
EXTT12=
EXTT13=
EXTT14=
EXTT15=
EXTT16=
EXTT17=
EXTT18=
EXTT19=
EXTT20=
EXTT21=
EXTT22=
EXTT23=
EXTT24=
EXTT25=
EXTT26=
EXTT27=
EXTT28=
EXTT29=
PLAYORDER=
